# xmcd
# Copyright (C) 1995-1998 Ti Kan
#
# Track frame offsets:
#       150
#       13479
#       31661
#       48421
#       66009
#       82364
#       97397
#       110873
#       142021
#       162043
#       178830
#
# Disc length: 2665 seconds
#
# Revision: 0
# Processed by: cddbd v1.5.2PL0 Copyright (c) Steve Scherf et al.
# Submitted via: CD-Import v1.0
#
DISCID=a30a670b
DTITLE=Featherlike - Kings and Queens
DYEAR=2009
DGENRE=
TTITLE0=How Do You Plead?
TTITLE1=Undignified
TTITLE2=Love (Is A Minefield)
TTITLE3=Firecracker
TTITLE4=My Brain
TTITLE5=Waiting For The Sun
TTITLE6=Simphonies
TTITLE7=The Girl With The Bleeding Nose
TTITLE8=Moonbeams
TTITLE9=Stanley 
TTITLE10=Smithereens
EXTD=
EXTT0=
EXTT1=
EXTT2=
EXTT3=
EXTT4=
EXTT5=
EXTT6=
EXTT7=
EXTT8=
EXTT9=
EXTT10=
PLAYORDER=
